<svg xmlns="http://www.w3.org/2000/svg" width="24" height="24" viewBox="0 0 24 24"><path fill="none" d="M0,0H24V24H0Z" data-name="Path 3624"/><path fill="#525863" d="M10790.2,13216.094a1.9,1.9,0,1,1,1.895,1.9A1.894,1.894,0,0,1,10790.2,13216.094Zm-6.229,0a1.895,1.895,0,1,1,1.895,1.9A1.894,1.894,0,0,1,10783.971,13216.094Zm-6.232,0a1.9,1.9,0,1,1,1.895,1.9A1.894,1.894,0,0,1,10777.738,13216.094Zm12.461-6.229a1.9,1.9,0,1,1,1.895,1.894A1.9,1.9,0,0,1,10790.2,13209.865Zm-6.229,0a1.895,1.895,0,1,1,1.895,1.894A1.9,1.9,0,0,1,10783.971,13209.865Zm-6.232,0a1.9,1.9,0,1,1,1.895,1.894A1.9,1.9,0,0,1,10777.738,13209.865Zm12.461-6.233a1.9,1.9,0,1,1,1.895,1.9A1.894,1.894,0,0,1,10790.2,13203.632Zm-6.229,0a1.895,1.895,0,1,1,1.895,1.9A1.894,1.894,0,0,1,10783.971,13203.632Zm-6.232,0a1.9,1.9,0,1,1,1.895,1.9A1.894,1.894,0,0,1,10777.738,13203.632Z" data-name="Path 2657" transform="translate(-10773.838 -13197.838)"/></svg>