<svg xmlns="http://www.w3.org/2000/svg" enable-background="new 0 0 64 64" viewBox="0 0 64 64"><path d="M60,9.9967h-2v38.9816c0,0.5525-0.4473,0.9996-1,0.9996c-21.7275,0-24.0015,9.1109-24.022,9.2026c-0.1015,0.4588-0.5088,0.7878-0.977,0.7878c-0.0034,0-0.0069,0-0.0103,0c-0.4697-0.0049-0.873-0.3309-0.9692-0.7897C30.9873,59.0332,28.6597,49.9779,7,49.9779c-0.5522,0-1-0.4471-1-0.9996V9.9967H4c-0.5522,0-1,0.4471-1,0.9995v41.9802c0,0.5525,0.4478,0.9996,1,0.9996c25.644,0,26.9634,5.8322,27.0005,6.0459c0.0044,0.0908,0.021,0.1787,0.0483,0.2626C31.1787,60.6925,31.5547,61,31.9995,61c0.5523,0,0.999-0.4207,0.999-0.9722C33.0059,59.9673,34.0088,53.976,60,53.976c0.5527,0,1-0.4471,1-0.9996V10.9962C61,10.4438,60.5527,9.9967,60,9.9967z"/><path d="M31 11.2631C28.4224 7.3967 22.5215 3 9.0005 3c-.5523 0-1 .4471-1 .9995v42.9798c0 .5524.4477.9995 1 .9995 21.6089 0 21.9936 11.4926 21.9995 11.9982V11.2631zM28.2622 46.1213c-.0708.4988-.499.858-.9883.858-.0473 0-.0947-.003-.143-.0098-.5464-.0781-.9263-.5847-.8482-1.1313.0034-.0361.1245-1.2533-1.043-2.5584C23.8936 41.7757 20.6772 39.9826 13 39.9826c-.5522 0-1-.4471-1-.9996 0-.5524.4478-.9995 1-.9995 6.8296 0 11.4731 1.3607 13.8018 4.045C28.5381 44.0295 28.2744 46.0364 28.2622 46.1213zM28.2622 32.1279c-.0708.4988-.499.858-.9883.858-.0473 0-.0947-.003-.143-.0098-.5464-.0781-.9263-.5847-.8482-1.1313.0034-.0361.1245-1.2533-1.043-2.5584C23.8936 27.7823 20.6772 25.9892 13 25.9892c-.5522 0-1-.4471-1-.9996 0-.5524.4478-.9995 1-.9995 6.8296 0 11.4731 1.3607 13.8018 4.045C28.5381 30.0361 28.2744 32.0429 28.2622 32.1279zM28.2622 18.1345c-.0708.4988-.499.858-.9883.858-.0473 0-.0947-.003-.143-.0098-.5464-.0781-.9263-.5847-.8482-1.1313.0034-.0361.1245-1.2533-1.043-2.5584C23.8936 13.7889 20.6772 11.9958 13 11.9958c-.5522 0-1-.4471-1-.9996 0-.5524.4478-.9995 1-.9995 6.8296 0 11.4731 1.3607 13.8018 4.045C28.5381 16.0427 28.2744 18.0495 28.2622 18.1345zM33 59.977c.0059-.5056.3906-11.9982 21.9995-11.9982.5523 0 1-.4471 1-.9995V3.9995c0-.5524-.4477-.9995-1-.9995C41.4785 3 35.5776 7.3967 33 11.2631V59.977zM37.1982 42.0285c2.3287-2.6843 6.9722-4.045 13.8018-4.045.5522 0 1 .4471 1 .9995 0 .5525-.4478.9996-1 .9996-7.6772 0-10.8936 1.7931-12.2397 3.2972-1.1675 1.3051-1.0464 2.5223-1.043 2.5584.0781.5466-.3018 1.0532-.8482 1.1313-.0483.0068-.0957.0098-.143.0098-.4893 0-.9175-.3592-.9883-.858C35.7256 46.0364 35.4619 44.0295 37.1982 42.0285zM37.1982 28.0351c2.3287-2.6843 6.9722-4.045 13.8018-4.045.5522 0 1 .4471 1 .9995 0 .5525-.4478.9996-1 .9996-7.6772 0-10.8936 1.7931-12.2397 3.2972-1.1675 1.3051-1.0464 2.5223-1.043 2.5584.0781.5466-.3018 1.0532-.8482 1.1313-.0483.0068-.0957.0098-.143.0098-.4893 0-.9175-.3592-.9883-.858C35.7256 32.0429 35.4619 30.0361 37.1982 28.0351zM37.1982 14.0417c2.3287-2.6843 6.9722-4.045 13.8018-4.045.5522 0 1 .4471 1 .9995 0 .5525-.4478.9996-1 .9996-7.6772 0-10.8936 1.7931-12.2397 3.2972-1.1675 1.3051-1.0464 2.5223-1.043 2.5584.0781.5466-.3018 1.0532-.8482 1.1313-.0483.0068-.0957.0098-.143.0098-.4893 0-.9175-.3592-.9883-.858C35.7256 18.0495 35.4619 16.0427 37.1982 14.0417z"/></svg>