<svg xmlns="http://www.w3.org/2000/svg" width="512" height="512" enable-background="new 0 0 512 512" viewBox="0 0 512 512"><path d="M165.116,265.385c-24.495,0-44.884,17.863-48.857,41.244c-2.455,0.438-4.826,1.115-7.092,2.01v-35.819
		c0-24.876,6.244-48.313,17.222-68.856c2.885,0.883,5.896,1.367,8.955,1.367c8.962,0,17.45-3.895,23.288-10.686
		c10.098-11.75,22.088-21.47,35.635-28.893c1.651-0.905,3.343-1.784,5.029-2.613c1.208-0.593,2.424-1.168,3.648-1.724
		c4.063-1.841,5.864-6.628,4.022-10.69c-1.841-4.064-6.632-5.865-10.692-4.022c-1.378,0.625-2.747,1.271-4.106,1.94
		c-1.897,0.933-3.803,1.922-5.663,2.941c-15.257,8.359-28.757,19.303-40.125,32.529c-2.765,3.218-6.787,5.063-11.036,5.063
		c-3.468,0-6.831-1.248-9.467-3.514c-6.08-5.226-6.773-14.424-1.548-20.503c32.978-38.367,80.883-60.371,131.432-60.371
		c3.747,0,7.536,0.123,11.262,0.364c4.621,0.3,9.288,0.792,13.873,1.462c4.416,0.647,8.516-2.412,9.161-6.823
		c0.645-4.414-2.409-8.516-6.823-9.161c-5.013-0.733-10.114-1.271-15.164-1.599c-4.073-0.265-8.215-0.399-12.309-0.399
		c-55.263,0-107.633,24.055-143.684,65.995c-8.149,9.482-9.458,22.549-4.421,33.181c-14.436,25.053-22.721,54.077-22.721,85.011
		v66.387c0,1.09,0.157,2.141,0.427,3.146c-0.014,0.412-0.032,0.823-0.032,1.238c0,18.361,13.246,33.676,30.683,36.917
		c3.287,24.17,24.047,42.86,49.104,42.86c27.334,0,49.572-22.237,49.572-49.571v-58.841
		C214.688,287.621,192.45,265.385,165.116,265.385z M114.813,363.412c-7.811-3.194-13.328-10.876-13.328-19.822
		c0-8.947,5.517-16.628,13.328-19.822V363.412z"/><path d="M426.588 337.636v-64.816c0-30.934-8.284-59.958-22.721-85.011 5.038-10.632 3.729-23.7-4.421-33.182-13.152-15.3-28.557-28.334-45.784-38.739-1.529-.925-3.071-1.827-4.625-2.706-3.879-2.196-8.813-.829-11.007 3.053-2.197 3.883-.83 8.811 3.053 11.008 1.421.804 2.829 1.629 4.229 2.473 15.758 9.518 29.85 21.442 41.884 35.442 5.226 6.079 4.529 15.276-1.548 20.503-6.082 5.225-15.28 4.529-20.505-1.548-13.315-15.489-29.406-27.754-47.83-36.454-3.965-1.873-8.061-3.583-12.172-5.08-3.365-1.228-6.824-2.343-10.281-3.317-1.501-.423-3.009-.822-4.525-1.197-2.138-.677-12.891-3.855-28.543-4.563-4.424-.213-8.232 3.247-8.434 7.704-.201 4.457 3.249 8.233 7.706 8.435 14.729.666 24.401 3.827 24.478 3.852.22.073.44.138.662.192 1.435.351 2.859.726 4.278 1.125 3.068.864 6.14 1.855 9.128 2.946 3.649 1.33 7.285 2.847 10.806 4.51 16.359 7.725 30.651 18.618 42.479 32.377 6.062 7.052 14.655 10.67 23.297 10.67 3.013 0 6.025-.467 8.944-1.355 10.979 20.544 17.222 43.984 17.222 68.861v35.478c-2.258-.825-4.617-1.438-7.052-1.818-3.881-23.491-24.325-41.467-48.899-41.467-27.333 0-49.569 22.237-49.569 49.571v58.842c0 27.333 22.236 49.568 49.569 49.568 24.87 0 45.517-18.41 49.037-42.317 17.899-2.854 31.623-18.395 31.623-37.086C427.065 341.563 426.898 339.576 426.588 337.636zM346.405 406.839c-1.294 0-2.568-.082-3.824-.226h7.65C348.975 406.757 347.7 406.839 346.405 406.839zM397.583 363.412v-39.645c7.812 3.194 13.328 10.875 13.328 19.822C410.911 352.536 405.395 360.218 397.583 363.412zM231.943 135.137c-3.038.496-6.087 1.101-9.063 1.8-4.343 1.02-7.037 5.368-6.017 9.71.875 3.723 4.193 6.232 7.857 6.232.611 0 1.233-.069 1.854-.215 2.617-.615 5.298-1.148 7.971-1.584 4.403-.718 7.39-4.87 6.671-9.272C240.496 137.403 236.338 134.419 231.943 135.137zM308.021 113.414c2.548.917 5.104 1.907 7.598 2.941 1.011.418 2.058.617 3.088.617 3.171 0 6.177-1.877 7.467-4.987 1.706-4.122-.249-8.847-4.371-10.554-2.728-1.13-5.521-2.212-8.308-3.215-4.195-1.516-8.824.664-10.336 4.861C301.648 107.273 303.823 111.902 308.021 113.414z"/></svg>