<svg xmlns="http://www.w3.org/2000/svg" viewBox="0 0 80 80"><path d="M75 32.548c0-3.916-3.186-7.101-7.1-7.101H50.061c1.311-4.285 2.868-12.455-2.189-17.435-1.526-1.502-3.468-2.352-5.469-2.394-2.016-.048-3.773.675-5.082 2.074a4.136 4.136 0 00-1.108 2.838v.711c0 7.31-3.331 14.08-8.91 18.107a21.165 21.165 0 01-5.381 2.812 3.366 3.366 0 00-3.353-3.188H8.371A3.375 3.375 0 005 32.342v38.67a3.375 3.375 0 003.371 3.371h10.2a3.375 3.375 0 003.37-3.37V69.64c5.945 1.004 12.078 1.509 18.369 1.509 7.033 0 14.262-.628 21.636-1.884a6.902 6.902 0 006.71-6.891c0-1.155-.289-2.243-.793-3.2 2.877-.88 4.977-3.56 4.977-6.721 0-1.48-.462-2.85-1.245-3.984A6.885 6.885 0 0075 42.537c0-1.942-.81-3.694-2.107-4.948A7.078 7.078 0 0075 32.548zM17.941 70.383H9V32.972h8.941v37.411zM68.112 39.65c1.592 0 2.888 1.295 2.888 2.888s-1.296 2.887-2.888 2.887H56.277a2 2 0 000 4h9.535a3.031 3.031 0 013.028 3.029 3.031 3.031 0 01-3.028 3.027H58.865a2 2 0 000 4h2.898a2.896 2.896 0 012.893 2.894 2.897 2.897 0 01-2.893 2.893c-.114 0-.227.01-.338.029-13.827 2.371-27.101 2.46-39.484.28V36.361a25.032 25.032 0 007.705-3.77c6.617-4.777 10.568-12.758 10.568-21.35v-.711a.18.18 0 01.03-.105c.525-.562 1.212-.83 2.077-.808.976.02 1.95.463 2.745 1.246 4.918 4.842.49 15.397.33 15.769-.1.222-.156.465-.168.72 0 .026-.007.052-.008.077l-.001.018c0 .068.013.133.02.2.006.06.007.12.018.177.013.07.037.136.057.203.018.058.031.117.054.172.022.056.053.106.08.159.033.064.063.13.103.19.023.035.052.065.077.098.053.072.107.143.17.207.018.018.04.033.058.05.076.072.154.14.242.2.01.007.02.01.03.017.092.06.185.118.289.163.276.122.564.17.847.164H67.9c1.71 0 3.101 1.39 3.101 3.1s-1.39 3.102-3.1 3.102H54.982a2 2 0 000 4h13.129z"/></svg>