<svg xmlns="http://www.w3.org/2000/svg" width="512" height="512" fill="none" viewBox="0 0 512 512"><path fill="#000" fill-rule="evenodd" d="M112 77C98.7452 77 88 87.7452 88 101V136.054L47.1554 115.632C36.517 110.312 24 118.048 24 129.943V286.964C24 294.108 28.7356 300.386 35.6045 302.348L88 317.318V411.111C88 428.953 106.776 440.556 122.733 432.578L256 365.944L389.267 432.578C405.224 440.556 424 428.953 424 411.111V317.318L476.396 302.348C483.264 300.386 488 294.108 488 286.964V129.943C488 118.048 475.483 110.312 464.845 115.632L424 136.054V101C424 87.7452 413.255 77 400 77H347.331C309.159 77 274.161 97.8991 256 131.254C237.839 97.8991 202.841 77 164.669 77H112ZM408 321.89L277.971 359.041L396.422 418.267C401.741 420.926 408 417.058 408 411.111V321.89ZM104 411.111V321.89L234.029 359.041L115.578 418.267C110.259 420.926 104 417.058 104 411.111ZM424 153.943V193V197V229C424 242.255 413.255 253 400 253H364.051C329.791 253 299.735 275.845 290.565 308.855C287.915 318.397 279.227 325 269.325 325H242.842C232.924 325 224.118 318.653 220.982 309.244C209.786 275.656 178.353 253 142.947 253H112C98.7452 253 88 242.255 88 229V197V153.943L40 129.943V286.964L256 348.678L472 286.964V129.943L424 153.943ZM104 197V101C104 96.5817 107.582 93 112 93H164.669C198.001 93 228.472 111.832 243.378 141.645L248 150.889V248.959C228.73 221.696 197.204 205 163.078 205H112C107.582 205 104 201.418 104 197ZM104 219.634V229C104 233.418 107.582 237 112 237H142.947C185.24 237 222.787 264.063 236.161 304.184C237.119 307.06 239.811 309 242.842 309H269.325C272.04 309 274.422 307.189 275.149 304.573C286.242 264.638 322.603 237 364.051 237H400C404.418 237 408 233.418 408 229V219.634C405.498 220.519 402.805 221 400 221H348.922C314.834 221 283.813 240.687 269.298 271.53L263.239 284.406C261.919 287.21 259.099 289 256 289C252.901 289 250.081 287.21 248.761 284.406L242.702 271.53C228.187 240.687 197.166 221 163.078 221H112C109.195 221 106.502 220.519 104 219.634ZM408 197V193V101C408 96.5817 404.418 93 400 93H347.331C313.999 93 283.528 111.832 268.622 141.645L264 150.889V248.959C283.27 221.696 314.796 205 348.922 205H400C404.418 205 408 201.418 408 197Z" clip-rule="evenodd"/></svg>