<svg xmlns="http://www.w3.org/2000/svg" width="24" height="24" viewBox="0 0 6.35 6.35"><path d="M3.694 1.324a.798.798 0 00-.783.794v.135h-.265c-1.152 0-1.798.652-2.092 1.274-.293.623-.29 1.235-.29 1.235a.265.265 0 00.466.173s.716-.83 1.916-.83h.265v.128c0 .619.719 1.005 1.234.661l1.587-1.058a.801.801 0 000-1.321L4.145 1.456a.793.793 0 00-.451-.132zm.007.53c.055-.002.107.014.15.043L5.44 2.955c.165.11.165.33 0 .44L3.85 4.455c-.188.125-.41.005-.41-.221V3.84a.265.265 0 00-.265-.265h-.53c-.74 0-1.317.26-1.716.52.034-.118.045-.22.103-.343.236-.5.648-.97 1.613-.97h.53a.265.265 0 00.265-.265v-.4a.26.26 0 01.26-.265z" color="#000" font-family="sans-serif" font-weight="400" overflow="visible" style="line-height:normal;font-variant-ligatures:normal;font-variant-position:normal;font-variant-caps:normal;font-variant-numeric:normal;font-variant-alternates:normal;font-feature-settings:normal;text-indent:0;text-align:start;text-decoration-line:none;text-decoration-style:solid;text-decoration-color:#000;text-transform:none;text-orientation:mixed;shape-padding:0;isolation:auto;mix-blend-mode:normal"/></svg>